<?xml version="1.0" encoding="UTF-8" standalone="no"?>
<!DOCTYPE svg PUBLIC "-//W3C//DTD SVG 1.1//EN" "http://www.w3.org/Graphics/SVG/1.1/DTD/svg11.dtd">
<svg width="100%" height="100%" viewBox="0 0 130 148" version="1.1" style="fill-rule:evenodd;clip-rule:evenodd;stroke-linejoin:round;stroke-miterlimit:2;">
    <g transform="matrix(0.0275218,-4.21477e-17,-4.21477e-17,-0.0275218,-8.99903,147.87)">
        <path d="M2121,5369C1637,5326 1270,5230 958,5066C606,4880 403,4658 343,4391C287,4149 381,3894 598,3692L665,3631L653,3579C626,3466 648,3311 707,3196L731,3149L701,3087C622,2923 623,2749 702,2578C731,2515 731,2514 712,2483C702,2466 685,2428 676,2400C663,2362 642,2333 596,2290C384,2094 292,1848 340,1610C349,1563 367,1502 380,1474C523,1146 928,877 1491,735C1618,703 1809,667 1918,656L1984,649L2025,574C2158,331 2379,145 2641,56C2804,0 2805,0 3970,0L5051,0L5051,945L3827,945L3864,967C4064,1088 4211,1219 4300,1353C4328,1396 4365,1471 4383,1521C4411,1602 4415,1625 4415,1733C4415,1832 4411,1866 4390,1927C4345,2063 4264,2185 4150,2290C4104,2333 4083,2362 4070,2400C4061,2428 4044,2466 4033,2483C4014,2514 4014,2516 4037,2562C4087,2662 4100,2720 4100,2835C4100,2950 4078,3041 4033,3113C4014,3144 4014,3145 4038,3194C4098,3312 4120,3465 4093,3579L4081,3631L4148,3692C4483,4003 4509,4415 4214,4748C3943,5054 3439,5270 2814,5350C2689,5366 2228,5379 2121,5369ZM2621,5050C3138,5009 3560,4873 3849,4656C3951,4579 4013,4507 4061,4411C4096,4342 4100,4324 4100,4253C4100,4146 4061,4063 3963,3960C3721,3702 3229,3524 2631,3476C1884,3416 1103,3621 783,3960C685,4063 646,4146 646,4253C646,4324 650,4342 685,4411C733,4507 795,4579 897,4656C1283,4947 1966,5103 2621,5050ZM1078,3393C1322,3286 1614,3213 1974,3169C2119,3151 2627,3151 2772,3169C3132,3213 3424,3286 3668,3393C3721,3416 3770,3438 3776,3440C3785,3444 3786,3436 3781,3411C3730,3186 3364,2969 2890,2883C2710,2850 2600,2841 2373,2841C2146,2841 2036,2850 1856,2883C1382,2969 1016,3186 965,3411C960,3436 961,3444 970,3440C976,3438 1025,3416 1078,3393ZM1034,2856C1251,2712 1559,2607 1927,2549C2052,2530 2117,2526 2373,2526C2629,2526 2694,2530 2819,2549C3197,2608 3509,2718 3733,2870C3769,2895 3775,2896 3783,2881C3797,2857 3782,2766 3757,2715C3702,2607 3594,2514 3425,2427C2975,2197 2271,2141 1694,2290C1411,2363 1151,2498 1045,2630C979,2712 944,2809 960,2872C967,2901 966,2901 1034,2856ZM1034,2226C1135,2157 1325,2074 1548,2000C1798,1918 1872,1885 1991,1805C2260,1624 2422,1390 2500,1070C2517,1003 2539,927 2550,902C2582,830 2658,744 2723,705C2848,631 2773,636 3804,632L4736,629L4736,314L2840,320L2756,349C2640,388 2551,443 2455,534C2317,665 2249,796 2201,1024C2147,1280 2095,1382 1952,1506C1866,1581 1781,1625 1612,1680C1451,1733 1290,1806 1196,1869C1034,1979 940,2124 960,2232C968,2272 966,2272 1034,2226ZM3786,2176C3764,2004 3547,1824 3229,1712C3115,1672 2915,1624 2793,1607C2744,1600 2689,1593 2671,1590C2639,1585 2634,1590 2579,1669C2547,1715 2492,1783 2457,1820L2395,1887L2528,1894C3006,1918 3445,2044 3733,2240L3774,2268L3783,2244C3788,2231 3790,2201 3786,2176ZM857,1741C942,1655 1094,1550 1219,1492C1267,1469 1376,1427 1460,1398C1634,1339 1705,1306 1759,1259C1816,1208 1858,1125 1884,1006C1891,973 1910,972 1694,1014C1280,1095 918,1271 748,1473C645,1596 617,1749 675,1874L704,1936L744,1875C767,1841 817,1781 857,1741ZM4072,1872C4095,1822 4100,1796 4100,1732C4100,1663 4095,1642 4064,1579C3996,1441 3811,1285 3599,1187C3418,1104 3103,1012 2928,991C2869,984 2868,985 2847,1018C2836,1036 2821,1081 2814,1116C2808,1152 2796,1204 2788,1231C2771,1289 2757,1281 2919,1308C3212,1356 3509,1464 3710,1595C3812,1662 3946,1790 3997,1870C4019,1904 4039,1932 4040,1932C4042,1932 4056,1905 4072,1872Z" style="fill-rule:nonzero;"/>
        <path d="M2168,4709C1894,4666 1703,4555 1616,4389C1580,4321 1580,4184 1616,4116C1686,3983 1795,3902 1990,3838C2374,3713 2898,3806 3075,4030C3139,4112 3155,4156 3155,4253C3155,4349 3139,4393 3075,4475C2930,4659 2521,4765 2168,4709ZM2531,4395C2672,4372 2780,4328 2829,4275C2848,4253 2848,4252 2829,4230C2762,4157 2554,4095 2373,4095C2192,4095 1984,4157 1917,4230C1898,4252 1898,4253 1917,4275C2010,4378 2296,4434 2531,4395Z" style="fill-rule:nonzero;"/>
    </g>
</svg>
