<?xml version="1.0" encoding="UTF-8" standalone="no"?>
<!DOCTYPE svg PUBLIC "-//W3C//DTD SVG 1.1//EN" "http://www.w3.org/Graphics/SVG/1.1/DTD/svg11.dtd">
<svg width="100%" height="100%" viewBox="0 0 12 12" version="1.1" style="fill-rule:evenodd;clip-rule:evenodd;stroke-linejoin:round;stroke-miterlimit:2;">
    <path d="M10.588,3.008L7.706,0.126C7.626,0.046 7.517,0 7.404,0L1.714,0C1.477,0 1.286,0.192 1.286,0.429L1.286,11.571C1.286,11.808 1.477,12 1.714,12L10.286,12C10.523,12 10.714,11.808 10.714,11.571L10.714,3.312C10.714,3.198 10.669,3.088 10.588,3.008ZM9.726,3.509L7.205,3.509L7.205,0.988L9.726,3.509ZM9.75,11.036L2.25,11.036L2.25,0.964L6.295,0.964L6.295,3.857C6.295,4.166 6.549,4.42 6.857,4.42L9.75,4.42L9.75,11.036Z" style="fill-rule:nonzero;"/>
    <g transform="matrix(2.2954,0,0,2.35148,-5.18023,-13.3842)">
        <path d="M4.727,6.742L4.34,6.742C4.338,6.723 4.333,6.705 4.324,6.687C4.316,6.669 4.304,6.653 4.288,6.639C4.273,6.624 4.254,6.613 4.232,6.605C4.21,6.596 4.184,6.592 4.156,6.592C4.089,6.592 4.038,6.616 4.004,6.664C3.97,6.712 3.953,6.782 3.953,6.872L3.953,7.01C3.953,7.058 3.959,7.104 3.97,7.148C3.981,7.192 4.002,7.228 4.032,7.256C4.063,7.283 4.108,7.297 4.166,7.297C4.208,7.297 4.243,7.289 4.27,7.273C4.298,7.257 4.318,7.237 4.331,7.213C4.345,7.189 4.351,7.164 4.351,7.14L4.351,7.124L4.189,7.124L4.189,6.859L4.727,6.859L4.727,7.103C4.727,7.167 4.716,7.229 4.696,7.291C4.675,7.352 4.642,7.408 4.597,7.457C4.552,7.506 4.493,7.545 4.42,7.574C4.347,7.603 4.258,7.618 4.155,7.618C4.045,7.618 3.952,7.602 3.874,7.569C3.797,7.536 3.734,7.491 3.686,7.435C3.638,7.378 3.603,7.313 3.581,7.24C3.559,7.167 3.547,7.091 3.547,7.012L3.547,6.867C3.547,6.753 3.57,6.652 3.617,6.562C3.663,6.472 3.731,6.401 3.822,6.349C3.913,6.297 4.025,6.271 4.159,6.271C4.256,6.271 4.34,6.285 4.412,6.312C4.484,6.339 4.543,6.375 4.589,6.421C4.636,6.466 4.67,6.517 4.693,6.573C4.715,6.628 4.727,6.685 4.727,6.742Z" style="fill-rule:nonzero;"/>
    </g>
    <g transform="matrix(2.72314,0,0,2.03633,-10.3459,-7.95312)">
        <path d="M5.298,6.885L5.298,7.006C5.298,7.068 5.305,7.121 5.32,7.163C5.335,7.206 5.357,7.238 5.385,7.26C5.413,7.282 5.448,7.293 5.488,7.293C5.527,7.293 5.56,7.284 5.587,7.264C5.614,7.245 5.634,7.218 5.647,7.185C5.661,7.152 5.667,7.115 5.667,7.074L6.046,7.074L6.046,7.132C6.046,7.23 6.022,7.315 5.974,7.388C5.926,7.461 5.86,7.518 5.775,7.558C5.691,7.598 5.593,7.618 5.484,7.618C5.355,7.618 5.247,7.592 5.158,7.542C5.069,7.491 5.002,7.419 4.956,7.327C4.91,7.235 4.887,7.127 4.887,7.003L4.887,6.885C4.887,6.761 4.91,6.652 4.956,6.561C5.002,6.469 5.069,6.398 5.158,6.347C5.247,6.297 5.355,6.271 5.484,6.271C5.566,6.271 5.642,6.283 5.71,6.305C5.779,6.328 5.838,6.361 5.888,6.403C5.938,6.446 5.977,6.497 6.005,6.557C6.033,6.617 6.046,6.684 6.046,6.758L6.046,6.815L5.667,6.815C5.667,6.773 5.661,6.736 5.647,6.703C5.634,6.67 5.614,6.644 5.587,6.625C5.56,6.606 5.527,6.596 5.488,6.596C5.448,6.596 5.413,6.607 5.385,6.629C5.357,6.651 5.335,6.683 5.32,6.726C5.305,6.769 5.298,6.822 5.298,6.885Z" style="fill-rule:nonzero;"/>
    </g>
    <g transform="matrix(2.17112,0,0,2.03633,-6.93951,-7.85288)">
        <path d="M7.023,6.877C7.023,6.815 7.015,6.762 6.998,6.719C6.982,6.677 6.959,6.644 6.928,6.622C6.898,6.6 6.862,6.589 6.819,6.589C6.776,6.589 6.74,6.6 6.709,6.622C6.679,6.644 6.655,6.677 6.638,6.719C6.622,6.762 6.614,6.815 6.614,6.877L6.614,7.013C6.614,7.075 6.622,7.128 6.638,7.171C6.655,7.214 6.679,7.246 6.709,7.267C6.74,7.289 6.776,7.3 6.819,7.3C6.862,7.3 6.898,7.289 6.928,7.267C6.959,7.246 6.982,7.214 6.998,7.171C7.015,7.128 7.023,7.075 7.023,7.013L7.023,6.877ZM7.434,7.011C7.434,7.132 7.41,7.239 7.363,7.33C7.316,7.421 7.247,7.492 7.156,7.542C7.064,7.593 6.952,7.618 6.819,7.618C6.687,7.618 6.574,7.593 6.483,7.542C6.391,7.492 6.322,7.421 6.274,7.33C6.227,7.239 6.203,7.132 6.203,7.011L6.203,6.883C6.203,6.759 6.227,6.652 6.274,6.56C6.322,6.468 6.391,6.397 6.483,6.347C6.574,6.297 6.687,6.271 6.819,6.271C6.952,6.271 7.064,6.297 7.156,6.348C7.247,6.399 7.316,6.47 7.363,6.561C7.41,6.653 7.434,6.76 7.434,6.883L7.434,7.011Z" style="fill-rule:nonzero;"/>
    </g>
    <g transform="matrix(2.53247,0,0,1.97582,-16.199,-4.47337)">
        <path d="M7.648,6.292L8.214,6.292C8.355,6.292 8.47,6.319 8.558,6.373C8.646,6.426 8.71,6.501 8.751,6.598C8.792,6.694 8.813,6.807 8.813,6.936C8.813,7.067 8.792,7.182 8.75,7.282C8.708,7.381 8.643,7.458 8.555,7.513C8.466,7.568 8.353,7.596 8.214,7.596L7.648,7.596L7.648,6.292ZM8.049,6.601L8.049,7.288L8.141,7.288C8.188,7.288 8.229,7.281 8.262,7.267C8.296,7.253 8.323,7.231 8.343,7.203C8.363,7.175 8.378,7.139 8.388,7.097C8.397,7.054 8.402,7.004 8.402,6.948C8.402,6.872 8.394,6.808 8.376,6.757C8.359,6.705 8.332,6.666 8.293,6.64C8.255,6.614 8.204,6.601 8.141,6.601L8.049,6.601Z" style="fill-rule:nonzero;"/>
    </g>
    <g transform="matrix(2.80773,0,0,1.97582,-18.7952,-4.47337)">
        <path d="M9.948,7.288L9.948,7.596L9.019,7.596L9.019,6.292L9.948,6.292L9.948,6.601L9.415,6.601L9.415,6.806L9.913,6.806L9.913,7.085L9.415,7.085L9.415,7.288L9.948,7.288Z" style="fill-rule:nonzero;"/>
    </g>
</svg>
