<?xml version="1.0" encoding="UTF-8" standalone="no"?>
<!DOCTYPE svg PUBLIC "-//W3C//DTD SVG 1.1//EN" "http://www.w3.org/Graphics/SVG/1.1/DTD/svg11.dtd">
<svg width="100%" height="100%" viewBox="0 0 137 131" version="1.1" style="fill-rule:evenodd;clip-rule:evenodd;stroke-linejoin:round;stroke-miterlimit:2;">
    <g>
        <rect x="0" y="0" width="136.703" height="130.444" style="fill-opacity:0;"/>
        <g transform="matrix(1,0,0,1,-2.84998,0)">
            <g transform="matrix(1.23802,0,0,1.23802,-23.9496,-22.499)">
                <path d="M90.477,76.266C90.445,76.498 90.441,76.738 90.441,76.978C90.441,80.143 91.058,83.165 92.205,85.92C86.275,82.028 78.252,79.212 68.352,79.212C45.043,79.212 32.145,94.751 32.145,103.13C32.145,104.197 32.703,104.552 34.023,104.552L100.801,104.552L100.801,112.209C100.625,112.219 100.435,112.22 100.242,112.22L36.41,112.22C27.981,112.22 23.969,109.681 23.969,104.095C23.969,90.791 40.777,71.545 68.352,71.545C76.799,71.545 84.237,73.357 90.477,76.266ZM90.289,41.38C90.289,54.482 80.438,65.197 68.352,65.197C56.266,65.197 46.414,54.533 46.414,41.482C46.414,28.584 56.316,18.173 68.352,18.173C80.488,18.173 90.289,28.38 90.289,41.38ZM54.59,41.482C54.59,50.47 60.938,57.529 68.352,57.529C75.816,57.529 82.113,50.369 82.113,41.38C82.113,32.494 75.918,25.841 68.352,25.841C60.836,25.841 54.59,32.646 54.59,41.482Z" style="fill-rule:nonzero;"/>
            </g>
            <g transform="matrix(1.23802,0,0,1.23802,-23.9496,-22.499)">
                <path d="M113.598,60.83C104.559,60.83 97.398,68.091 97.398,76.978C97.398,83.884 101.461,89.724 107.707,92.162L107.707,117.298C107.707,117.908 108.012,118.365 108.418,118.873L112.684,123.138C113.191,123.646 113.902,123.697 114.461,123.138L122.535,115.115C123.043,114.556 123.043,113.845 122.535,113.337L117.508,108.31L124.465,101.505C124.973,101.048 124.973,100.287 124.363,99.677L117.559,92.923C125.379,89.724 129.746,84.037 129.746,76.978C129.746,68.091 122.535,60.83 113.598,60.83ZM113.547,68.396C116.289,68.396 118.523,70.63 118.523,73.373C118.523,76.216 116.289,78.451 113.547,78.451C110.805,78.451 108.52,76.216 108.52,73.373C108.52,70.63 110.754,68.396 113.547,68.396Z" style="fill-rule:nonzero;"/>
            </g>
        </g>
    </g>
</svg>
